<mxfile host="app.diagrams.net" modified="2020-10-13T08:46:51.920Z" agent="5.0 (X11; Linux x86_64) AppleWebKit/537.36 (KHTML, like Gecko) Chrome/85.0.4183.121 Safari/537.36" etag="rzvLU8a5Ftzuc65Jt_ze" version="13.7.9" type="github">
  <diagram id="q2rbWGTxsD76TEbXDo6t" name="Page-1">
    <mxGraphModel dx="981" dy="509" grid="1" gridSize="10" guides="1" tooltips="1" connect="1" arrows="1" fold="1" page="0" pageScale="1" pageWidth="827" pageHeight="1169" math="0" shadow="0">
      <root>
        <mxCell id="0" />
        <mxCell id="1" parent="0" />
        <mxCell id="pCYmd_2DrCdRAfmsSHer-1" value="" style="shape=image;verticalLabelPosition=bottom;labelBackgroundColor=#ffffff;verticalAlign=top;aspect=fixed;imageAspect=0;image=https://gitlab.com/uploads/-/system/project/avatar/996160/runner_logo.png;" vertex="1" parent="1">
          <mxGeometry x="190" y="200" width="130" height="130" as="geometry" />
        </mxCell>
        <mxCell id="pCYmd_2DrCdRAfmsSHer-2" value="" style="shape=image;verticalLabelPosition=bottom;labelBackgroundColor=#ffffff;verticalAlign=top;aspect=fixed;imageAspect=0;image=https://images.viblo.asia/703279f5-241c-472d-8adc-deb324758551.png;" vertex="1" parent="1">
          <mxGeometry x="154" y="30" width="520" height="119" as="geometry" />
        </mxCell>
        <mxCell id="pCYmd_2DrCdRAfmsSHer-3" value="" style="shape=image;verticalLabelPosition=bottom;labelBackgroundColor=#ffffff;verticalAlign=top;aspect=fixed;imageAspect=0;image=data:image/jpeg,/9j/4AAQSkZJRgABAQAAAQABAAD/2wCEAAkGBxITEhUTEhIVFRUXGBcbFxgXFxUWGRgWFxcWFxUWFxsYHSggGRolGxUXIjEhJSkrLi4uFx8zODUtNygtLisBCgoKDg0OGhAQGyslICUwLy0uLSstLS0tLS01LS4rLy0tLS0tLS0tLTUtLS0tKy0tLS0tLS0tLS0tLS0tLS0tLf/AABEIAQgAvwMBIgACEQEDEQH/xAAcAAACAgMBAQAAAAAAAAAAAAAABgUHAQMECAL/xABHEAABAwIDBQUFBQUFBwUBAAABAAIDBBEFEiEGBzFBURMiYXGBMpGhscEUQlJiciMzgrLRQ5KiwuEIJDRTY9LwVHODs/FE/8QAGgEAAgMBAQAAAAAAAAAAAAAAAAMBAgQFBv/EADARAAIBAgUCBAUDBQAAAAAAAAABAgMRBBIhMUEFEyJRcdEyYZGhwRSB4QZCsfDx/9oADAMBAAIRAxEAPwC8UIQgAQhCABCEIAEISrtdt7R0AIe/PLyiZYu/i5N9UANJNtSk7aLeXh9KS3tO2kH3Iu9r0LvZHvVcVuKYxjJIjaYKY8gSxpHi7i/00UJjWzFFSMMb6h89U4dyOFoyh3K/P0QTYmsb3zVklxTxsgbyJ/aP89dB7ilWXajFKp2X7TUSE/djLh8GWCaNkt1UktpK0mJnERt9sj8x+781bGE4PT0zAyCJsY8BqfM8SlyqJbF1AomPY7F5dTDN/G6x+JWXbF4vHqIZf4H3PwK9AmQdV89sEvvMv2zz2MbxikPelqo7cn5nN9zrhMeB75qyOwqI4529R+zf56d0+4K3pHtcLOaHDoQCPcUrY5sFh9Tc9l2T/wAcXd18RwKsqy5IdNk/spt3RV2kUmWTnE/uv9OTvRM6817S7A1dEe1icZY2m4ey4ey3MgajzCed2e8/tC2lrnDOdI5joHdGv6O8eaamnsKaaLbQhCkgEIQgAQhCABCEIAEIQgAQhJe9jaI0dC7szaWU9mw8xcHM4eTQfWyAFbeHvIldKaLDbl98r5G6nNwLI/q5R2CbFwUrftOIu7WU6hhOYZuOt/bd56KJ2HxHD6CL7RNIJKl4NmMGZzG8gfwk8yo7FtuBO9z3Ndf7ouLAchxQST+0O01VUPbS0jS10mjWM0s3q48h8E5bFbDQ0Q7SS0tSfakOuUniGX4efFat2mAiKAVUgBmnAdf8MZ1YwempTdLJyCz1KnA6ETL5ei0ucSsIlLWC73NaPzED5pGrGaIEL5jka4Xa4OHUEEe8L6UEghCEEgQqk3l7ECO9XTNsy95WD7p/G3w6hW2oXaPa2ho/2dQ/M8jWNrS82P4gOAPimU209Ck0rakDui3gGXLRVTryAWhkJ9sD7jj+IcjzVsryfjstO2pMlC94ZfMy4LXRuvfKL8bHgV6L3e7R/bqJkp/eDuSD87eJ9ePqthmaGVCEIIBCEIAEIQgAQhCAIba3H2UNLJUP1yizW/iefZb/AOdCvONRU1uK1WpdLI46C9mMb4Dg1oVhf7QOIm9NTg6WdIfH7rb/ABXPs21tBh8bmgfaKkZi7mGH2fhb1KCTXRbGUFGAax3by/gHsjwtz9Vz7VYlA+kkihpY422BBAGYZSDoR5Lme8kkk3J4kqPxx9oH+VveQEAWbuxqi7DIL8RmaPIONvhp6JkS5u8pjHh1O08S0u/vuLh8CExrDN+JmqOxAbbbVsw+EOsHTPuI2fNzvyhVjBs1ieKHt5nWY7UGQkC35GDkm2t2ffWYw99Q0/Z4Gx5AeD9LgDqM1yU/gW0CZmUFpuUy5nqIuwex9VQzOL52uhcwgsbm9u4sbHhz96e0ISpScndl0rAhCFBJlpSdNu7pJZZJqgySvkcXE5i0C/AADoE4IUqTWwNJ7lU7UbrcrTJROc62piebkj8ruvgV9biMVMdXLSuuBI3MAdLPj438bFWoqsxuEUePU0ze6yZzSfM9x/zatFKo27MTUgkrovRCEJ4kEIQgAQhCABfE0rWNLnENaBckmwAHElZkeGglxAAFyTwAHElUBvP3gOrXmmpiRTg2JHGZw5/o6DmgErkVvV2jira3PASY2NDA4/esSSR4JixmS7o2jgyKJo8sgP1VcYhh7ogzNxcL26eCZMS2niu0sBf+zjB5AODGhw146hQmmroZUpypyyyVmSai9oQTG1g4ve0e9aqbaKNxs4FnjxC6q94z07ye6JoyTytcKWULsooBHGxg4Na1o8gAFuQELnmsEIQgDZHFdLeDYg4VlVSSHVrhJFfnE8C4Hk6/vUy7GoGP7N80bXi3dL2h2vDQlJm8uUR9jX08jGzQnLbMP2kbjq23O3yJTIpPQq3yPSj8fxL7NTyT5c/Ztvlva617NYy2rpo52jLmGo6OGhC68SoxNDJE7g9jmn+IWVLWepbjQ+qCqbLGyVvsva1w8nC66Gi6rrdhjTmF+HTm0kTndnfmAe80eXEeBTltBj8VFF202bLcN7oubngrONpWIUrq5G7TV5pa2keT+xmDoX9A4kOjPvv8Ur74Rlkopfwv+Tmu/wAqj9ud4NNWUzoWRSZrtcxxs3K5p48+Vx6rl23q5ZsLoZJ2Fr87m68XAMNn+qbGNmmLbumj0HA/M1p6gH3hbFTu6beISW0VW/XQQyHn0jcevQ+iuJaBAIQhAAhCVt4u1AoKR0gt2r+5EPzEe15AaoAQ98+25uaCnd/77h/9Q+vuSRs7hOUCR47x9kdB181H4FRGaQyyEuANyT95511+aaZn2FhxWPE1f7F+56LpGBVv1FRenv7CnPHLV1QijGZznZGD6nw4kqy27PYPhbGCuLZZnC/eDn+eVg4N8Sl/czA11fI53FkbsvmXAE/+dUw71MHjdkLW3nqZ4487tS1oabNb0GnxKbtaPBxqknOUpvdsxjWy+G4hTPmw7I2VgJAZ3b2F8j2cifJVlSVF6eWN5tlsW34g34e8fFPz9nnYRV000MjnxSPEUoPV2gvbkTwW6s3Th8z3/aMrHPcQ0N1AJvbXRTGaXOgtxbHrZuu7algl5ujaT52s74gqSXFg2GspoGQR3ysFhfUnUkk+pXasz30HoEIQoAQtst3Qq5jPFN2b3AZg4XaSNAQRqFAU26ScuHa1MYbzyhzjbwzWCtxCYqskrFXBM48HwyOmhZDELMYLC+pPUnxK7EISyxW28/Z6Rr24hTXEkdjJl46ezJ6cD4Kf2ZxqDFKUtlY1zgAJYz15OHgeRTS5oIIIuDoQeYVQbUYNNhNUKyk/cudq3k2/GN35TyPJNi8ytzwUejuWBh2xNBC7PHTNzDgXFz7eWYmyWd9f/D04/wCqf5Cm7ZfaCKthEsdwb2e08Wutcjx48Ulb6Jb/AGSPmXud8m/VEL59SWk1oV9jGG5AJGcNL25HqFdm6Tbb7ZF9nnd/vEQ4n+0YNA79Q4H3qt3MBFiLi1il2ColoKpk0RsWOzN8W82nwtorUKubws39UwPafchs9/kz1ahR2z2MR1dPHURnuvaDbofvNPiCpFaTjAvN29LHzXV5Yw3jiPZxjkXX77vf8ldu8PG/slBNKD3y3Iz9b+6Pde/ovPOytLmkMh1y8L/iPP8A86qlSeWLZowlB16saa5/xyMdHTiKMNHIe88ysEr7mdqta5e+rPcWUUox2RxbFYiKPFGlxsx5LHHwktY/3gFb202FGcwObxhqI5PNoNnfAk+ipPaOiLgJGjUe15dU87C7xYzG2Csfke0ANkPsuA4Zjyd481tu5RUkeQxVHs1pQez1XoWLU0zJBle0OFwbHq03B8wVtS9jW2lHTxl5mbIfusYQ5zj9B4rdsdjj62n7d0XZAvcGi97tHB17BLyu1xN1exNoQhVJBCEIAEIXxHK11wCCRobG9j4oA0YniEcEfaSmzQWj1cQ0fNd0jweHvS7tzhL6qilij9vRzR1c03AShQbT4y1jYzhznuaAMxa4XtpchXUbrQq3ZlmpD3m7SUwpZaZr2yTPs0Nb3suoNzbgdOHHVR02FY5XaTyNpojxa0206Wbdx9TZTeD7I0GHN7aVzXPGpklIFv0t5fEqySi7t/Qhts+912Eup6IF7S18ji8gixA4N0PgAfVKO8+o7TEoYuUbAT5uJJ/lCeMC2sbWTPbTsJhjHfldoCeTWD43PRVZPV/acQqJ+IzEN8h3W29Bf1Rqs0mOw0M9WEF5r7akguDGaPtIzb2m6j6hd6FkjJxd0esq041IOEtmTG4raTJM+iee7Jd0d+Tx7TfUa+ivFeUJpXUtW2WPQse2Rvobkeuo9V6lwqubPDHMw3bIxrh5OF11Yu6ujxFWm6c3B7oqP/aAxXWnpQeGaVw/ws/ze5KmBQdnA3qdT68F871Ksz4tMOIYWRjyaBf/ABFy7niwDRyHyWXFS0SO30Kn4p1PJW+prQhCxnfAhQtdgIcbxnKeh4enRTSFaE5Rd0Jr4enWjlmrijQ0bRUxxS+yZGNfbo5wB+a9NNp2sYGMaGtaAGgaAAcLLzdtJCWyB40uOPRw4L0FsxiQqaOGYfeYL+DgLOHvC2SeaKZ5StS7NaUPJ/Y60XQl7bWSaKJtTBcugdmc38cR0kb7tfRJSu7EN2GFAXHhGJx1MLJojdjxceB5g+IK7FAHJtHizKWF0zmOc1trhgubHn5JS2h2Z+2BtZQTmKV7QbtcQ2QW0zW4O5XTvI0OBBFwRYg8x0VZ4vV1ODSkxN7WikcSGG/7Nx1LWn7vhyTIa7blJfMgavFMdpTaQzEDnlEjfe0cPNcbt5OJDQysHnGL/NPtHvToXj9oJYzzBbmHvbx9y6XbdYS7jI0+cL/+1Mu+YlbeTFer2vrZMKZOyQiU1Do3OY0eyG3AtrzKX8K2ZxDEZA6XtAy+sk2awH5WnifIK1cG2rw+eQQU7szjchoicBpxJu2w80yXVe5l2Vict+RK2jMWFYY6OHRzhkafvOe8d558bXPoq32cgyxZubjf0GgXZt7jZr6wRRm8UV2tPIn77/hYeS3xsDQAOAFgl1Xljbl6nW6TRzVHV4Wi9T6QhCzHoCF2mguxr/wm3oVb+4/Fe1w/sibugeW/wnvN9NSPRVjiUWaJ48D8NVPbga/LVTw8nxh3qx1vk/4LfhpXjY8x1illrKXmhLqpe1xKR/4p5HemYlMUp1SpgLs1SCeeY/AppJSMV8a9DpdGVsO35y/CMIQhZzqghC0VdYyMXebeHM+QUpN6IiUoxV5OyPnEaYSRuaelx4EJk3J47+8o3nrJH/naPn6lV5X4w+TusBa09NSVpoKiakmjmaC17SHNvz6g+BGnqt1KlJQaZ5bqOKpVaqcOOfM9MytsVrc0EEEXB0I6joo/ZraOCuhD4nDNbvsJ7zHcwR08VIkJMlZmZO5XEzX4NUl7QXUEzu8Br2Lzz8vmFYVLUskY18bg5jhcEG4IWKykZKx0cjQ5jhZwPAhVpUU9ZgshdCHT0TjctNyY/wCnnw6q3x+pHw+haK1VVMyRpZI0PaeLXC4Khdn9sKSrA7OQNfzjfZrr+HX0U+qNNFrpiXWbscPebtbJH4Mfp7iCtMO6ugB1MzvN4A+AT0uDFMap6duaeZjPAnU+Q4lWU5eZXLE1YLs9TUoPYRNYTxOpcfMnVKe9La0Qxmlhd+1eO+R9xh4j9RUNtRvSc4GOiaWDh2rh3v4Ry8ykfDKcTSF80lyTcgm7nHxTqVFyd2KqVVFaGdnahjXkO0LhYH6eqaEt4zg+Tvxju8x0/wBF9YRjNrMkOnJ3TzVcTh5XujrdK6jBRVKWi4fuMSFgFZWE9GYcLi3Vcu6mq7LFI+hErT5ZHH5tC60v7OSZK5pHIyfyOC14V6s4XW14YP1/Bz4I3LU2PLOPmE0KAxKLscSlZwyzyD0zG3wU+q4peJDujSvRa+f4QLD3AC5NguTE68RNuRcngEtzVU07sup6NHBUpUJT14H4zqNPD+HeXl7kliGPfdi/vH6Bc1HhMkxzvJAPM8T5KTwzBGss5/ed8B/VScszW8SurRw0YLU8ji+o1a8tX7GmjoI4x3W69TqUYlTsewtfp0PQrTLXE+yLLkc4nibrS2rWMCve7IihzxTsAlMJzAdoCRlBNs2nJW9FQbQRgGKanrI/uuu3vDkSTY/FVpLE1wsRddOEYzW0f/CznL/y3d5vu/pZZZ0jZCsNu0+1OMUkX+80scOfutkac1ja+neIvZJJZiEg7QzSEu11kNyD5ro2r2xqMQ7FlQ1rezcfZv3i6wuQeHD4qZe+2gWKtPt2yo7fTcHDEqTqN6W2ESpp5GG72uaep/qpvAscxAuEUFU+9u610gsfBufS/gp17rizgCOhURiGz7HDNGQw9D7P+iiOIUtJIbiOjzj4qLv8tn7Ey6g2gm7pdMAfztYPgdVDbQbKvpW56upZ2rvZjbmkefE3sAPFfOEV1fd0cdY9oZx75cPS91xhx+1E1ZdK465jdxJ5afRMz2en2OfHCzaTkrJu13scuHYPJLqBlb+I/TqurE8CMTO0a/Na19LW8QmYSgtGUEDxFvguWuZmjePyn5LP+om5fI7j6TQjRa3lbf8Ag5sLxDOwZ+PC/wANVH4vgtrviGnEt+oWnCT3PVStNVFuh1C7CtKOp4t3hJ5SMwHESHCN2rTw8D08kyJWpGB1V3eGYn0H+qaVx8TFKeh7To9Sc6Hi4egKB2ZiL69rRzMnwY8qde6wJ6Bc+6Sl7XFI+Ya2Vx9WFvzcFfCrcz9blpBev4M73KIw4rK7lJkkHqLH4tK3RvuAeoB96at/+E3bT1QHAujf5HvMJ9QR6pGwKfNCOrdD9FbFR0TFdFq2nKHmr/Q5NqIu6x3Qke//APFv2ZLDGbABwPePM9F2YlT543N5208xqEvbPVGWWx4O09eSdgp8GXrtBqpm81f6aDBXzOBsDYWXASpDEm6AqPXQluefjsCEIVSQQhCAOPEm6Nd0cPcmd5vqOYCgKmPM0jqF3YLU54m34t7p9OHwXOx0NpHpf6frJOdN86/T/p3rXNAx4s9ocETTtYLucAPFRzRPVksp2kMHtPOgPhf6LJSpSm/CdrGYujQg+5Z/IjoqxsEzxGMzTYWB5romZPHKypngkjjPAlhAtYgceadN0WIxNMlHJG1s2YuDiNXW0LTfmPknzGMVg+2RYbJBI8zMuXlodHwJsQeWnHkt3bXO+x5n9ZU0UdEnmS4WtyoGYxC7+099ws1NdHkcQ9p0PAjopjafZKmixWOmbHljdFnc0OdYm7upuBpwW7EdiaZ7SI29m7kQSRfxB5KscEnqmaZ9fnHwyiteRJwxtmDxuV0yOsCei56MOaXRuschLbjUadFjE5LMPjotydonBavM3bMw+3IfIfMqeXHhMGSJo52ufM6rsXEqyzTbPe4Kl2qEY/7qcmKy5Ynnwt79Eyf7P9BeoqJ7aMjawebzc/Bg96S9p57NazqbnyCubcrhPY4c15FnTuMn8Pss+AB9Vrw0bQv5nB6xVzV8vkv5GDbjBRWUU0H3i27PB7e80+8Lzds/OWSmN2l7gg8nDl8wvV687b3tnTSVvbRi0c5ztI4CQe236+pTpxzRaMGHrOjUU1wCUcUiMUxI65h80y4fVCRgcPXwPNR200F2Nf8AhNj5H/VYqEnCdmej6lTjXw2ePGv7EpM7PHccwCoxdOBSZoAOl2/0XMV227pM8PazaBCEKpJz1k5aBbmQF1yxlpsVxVzL5P1hS+J8R6oXJL2RxLgfFKwnsnEB2p4LvXPXXyHLx+nNVnFSWoylUlCV4uxu2XwF1XIXSOPZsPeN/aP4QrOpqdkbQxjQ1o4AKv8AZHaqOBghlZZtyc411P4h/RP9JVMkbmjeHN6g3U0lFLQXiHNy12E/bSkdTzR10OjmuGa3UcCfMaFWsduqOKjgq53WEtmtIbmcCRcjTgBzStiVG2aJ8buDgR68j71GbpKiNxlw6rjZJ2b87GvAIBBs6wPQ2P8AEl1Y2dx1CeaNnwd21DxJjmYG4bSst5OLv+5cO12LdhDZn7yTus8OrvQLrxSVpxaukJAbEyJhPIWaHH6pCr681Mzpj7Psxjo0c/Mq0HaNilRXnd8GiCLK0D3+J5lckze0mZHyB1+ZXa91gSeS17ORZnvlPkPXil4ieSBr6dQ72IimT6EKNx2syR2B7ztB5cyuPGLk7I9xWqxpQc5bIjIqZ1bWMhZ/aPDB4Nv3neguV6noKVsUbImCzWNDQPACyp7cRs3dz66QaC7Ir9fvuHyV0LqJWVkeIqTc5uT3YJf252bbX0j4TYP9qN34Xjh6HgfNMCFJQ8n0Er6aZ0UoLbOLXg/dcDa6nsRjzxPH5dPmnvfJsOZWmup23kaP2zQNXtH3wObhz6hVdgeJXHZPPg0/RZq9PXOjtdNxayvD1Nnt+/B9bKSaPb5H36fRdE4s4+aj9njlnc3wcPcVJ1w759F0oO8Eebqq1RmhCFy1725SC6x4jrfkpbsVSu7Gyo4s/W35qTxPiErGtcct9cpB9yka3HQ61mWt1IVVUWpeVKWh1oUfDUzSfu4XP/S17/kFIQYLicnsUc3rGW/zWUdxE9qRz1FEx3Kx6hcsPbwOzRPcPFv1HNTzNisZd/8AySDzMY/zL6OwOM/+mf8A3o/6qjlFjIxktDZhe3zx3aiPN+Zmh9QVzYhjscdbFW0zr8M7bEHTRwIPVq0VOwmKjV1FKfEZD8nKCrcPmiNpYpI/1Nc33EixVXNtWZaNOKd0TldjbpzMG3HbyukkP5L9xnuXyAALKEjp5bd1r7eAK3YRhk9VKIYGl8hBIbcDQceJVlKy2Kyhme5uxSoGXKDqePkt1PizIowxgzO4k8Bc/Nasc2cqqR7GVMRjc/VtyCDrbiFbeyW6OlbG2Wsf2rrXLQcsbfPm5KqJVNzVhq0sPdw3fJUcVTVVL8kQe9x4NjB+n1TO/dTihi7UsYXWv2ee77fK/hdWpRbU4dDJ9lw+AzSDQtp4xlH65OA9SnGme4tBezIemYOt6hCilsiKlWc3eTb9SmN0u2ssMzcOqhZly2O4yujfqcjvA68eau1UbvywnsKqGsiGUyaEj/mx2c13nb5K3tmMVFVSwzj+0Y0nwdbvD33UiyUQhCCDBCo/eru6MLnVlI28R1ljbxjPN7R+H5K8VhwvodQgDyTgkn7dh6k/EFT+Ijvei+ds6NkGLysjaGs7UENGgAcBw96+8S9oeS0UvhZnrfGmci+2xwk3fGCeq+EKwo14tBD2TixoDgLjSyv3ZPZugFPDLHSwhzo2EuyNJJLRc3PiqBq23Y4eBV/bsKrtMLpTzDMp82khJq7mik9Bljha32WgeQAWxCEsaCwsoQAKpd9EWajDubZm+4hwP0VtKsN7jL0Evg9h/wAVvqglCCyZoaLkcB8lx7vKgRYvTnkZHNPk5rrfGy5IuA8guGmqOyrIpOGSWN3oHNJ+CfVd0jNQVmy7N+WFiTD+2A70D2uB/K45XD3lp9FMbP00ddhkLJS8sexmYMcWF1gAQS0g2JC7NvYhJhlUP+g9w8w3MPiFCbn6sHDYgSBYOGvUOP8AVINJmj+20t4qHCIo4gdC6eMF3ictzfzJTRg9TVPH+8U8cX6Ze0+GUW96h6ykxNziY6+naOTewPDxObVSGEtrmkfaJqaQcyxr4z8SQUEC9vqoe0w1zraxva8eQNnfAqN3C4mX0ksBP7qS7f0yC/8AMHJn28e11LO0+yIn387aJF/2eYDlq38iYm+oDif5ggkuJCEIIBCEIA8471e7jEh4axH4Bclc8Fwsbi3JPu9vYCpqJ/tdK3tCWhr47gO7ugLb8dOXFVDK2aB5ZI1zHDi14I+BTITy6C6lPNqTCFxU+INOjtD8F2Apqaewhxa3Bw0Kt7cXV5sPdHzjlePR3eHzVRJ/3C1dpayD9Eg+LT8gl1RtHkuNCwspQ4EIWEAZVcb0o74fU+GU+6RqsdI238Oaiqx/03n+7r9EEopKnPcb5D5KJxZvfPkFtixLK0ANuQOq1Bsk7w1jC950DWAkn0CbKSasJhBqVy5cb23pTQFj6gOkkgyhjbuOYstY20GqT9iNv4qKl7CSJ7yHucC0gCzraa+SsTYbdrSRU0T6qma+oc0F4k7waTrly+zomyXZiicws+zQhpBBsxo0PSw0ShxWdLvLdMbU+HzSeRBHqQLBNOC4pUy/vqJ1OOrpGO+DUuv3QTxFxo8QdGCdGkObpyBLXa+5c0m6nEpNJcRBHi6V3wKAPjentbG2F1JC8OkfpIWm4a3mLjmU77qMBNJh8YeLSSkyPHMF1soPiGgKH2X3Q01PI2WeR1Q9puAQGszDgSLkut4lWSgAQhCCAQhCABRuN4DTVbMlRC2QciR3h+l3EKSQgClNqNzL23fQyZx/y5DYjwa7gfVVtiGGVVI7LNFJER+IHL7+C9aLXNA14s9rXDo4Aj4oA8lMxN3MApv3Q4pkxVl9BM17LeNsw/lKuuo2Kw55u+igJ65AqV25oG4bjDJImhkWaKVoAsA24EjQOlgfepcmyFFLY9EoXxG8OAcOBAI9V9KCTKFhZQAJT2uZeCqHWOT+UprS5tMy8cw6xu+LSgBK3aYNTuoIpHQxl7g8OcWgn23Dn4Jf3SRCLGpoiLENnA9HtIHuTTuqffDo/Bzx/iJ+qVK6b7JtFHJwD3sJ8RKMnzsgkvtCEIIBCEIAEIQgAQhCABCEIAEIQgAQhCABVPv+wnNBDUgaxuLHH8r+HxCthQm2mE/aqKeG1y5hy/qb3m29R8UAcW7TFPtGG07ybua3I79UfdN/O1/VNCpfcXj7IhPSzSNZ3g9mYgd72XtF/JvxVzNcCLggjqEAfSFhZQAKGx2O4I6sI+BUtJK1vEgKKr6gP4DQX1QBTmwe21LR0ZimL+0EjyGtaTobW14dVB4rixxLE4HwROaS6JrQdT3XAlxtwsNfRbdkdnYanFn0s9zHmm9l1r5CS3Ucle+AbKUdH/w8DWO5u4uP8R1QSTTRoFlCEEAhCEACEIQAIQhAAhCEACEIQAIQhAAhCEAUVtxurrDUyzUrGSRPcXNYHBrmk6kWdYWvfmlZlBjNIe6ysitzb2hHvFwsoQSdMW8HGItDO/8A+SMH5hbzvWxY6dqz0iZdCEAaXbcYvLwc4/oiH0C0SUmNVWjmVjweoe1vvNghCALE3W7uZqWYVdWQ2QAhkYOYjMLFzyNL25BWshCCAQhCABCEIAEIQgD/2Q==;" vertex="1" parent="1">
          <mxGeometry x="500" y="206" width="89.71" height="124" as="geometry" />
        </mxCell>
        <mxCell id="pCYmd_2DrCdRAfmsSHer-4" value="" style="rounded=0;whiteSpace=wrap;html=1;fillColor=#000000;" vertex="1" parent="1">
          <mxGeometry x="354" y="280" width="120" height="20" as="geometry" />
        </mxCell>
        <mxCell id="pCYmd_2DrCdRAfmsSHer-5" value="" style="rounded=0;whiteSpace=wrap;html=1;fillColor=#000000;" vertex="1" parent="1">
          <mxGeometry x="354" y="230" width="120" height="20" as="geometry" />
        </mxCell>
        <mxCell id="pCYmd_2DrCdRAfmsSHer-14" style="edgeStyle=orthogonalEdgeStyle;rounded=0;orthogonalLoop=1;jettySize=auto;html=1;entryX=0.5;entryY=0;entryDx=0;entryDy=0;" edge="1" parent="1" source="pCYmd_2DrCdRAfmsSHer-6" target="pCYmd_2DrCdRAfmsSHer-9">
          <mxGeometry relative="1" as="geometry" />
        </mxCell>
        <mxCell id="pCYmd_2DrCdRAfmsSHer-6" value="docker:19" style="shape=process;whiteSpace=wrap;html=1;backgroundOutline=1;strokeColor=#000000;fillColor=#FFFFFF;strokeWidth=2;" vertex="1" parent="1">
          <mxGeometry x="174" y="610" width="120" height="60" as="geometry" />
        </mxCell>
        <mxCell id="pCYmd_2DrCdRAfmsSHer-7" value="CI" style="rounded=0;whiteSpace=wrap;html=1;strokeColor=#000000;strokeWidth=2;fillColor=#FFFFFF;opacity=0;" vertex="1" parent="1">
          <mxGeometry x="184" y="520" width="120" height="60" as="geometry" />
        </mxCell>
        <mxCell id="pCYmd_2DrCdRAfmsSHer-8" value="" style="shape=image;verticalLabelPosition=bottom;labelBackgroundColor=#ffffff;verticalAlign=top;aspect=fixed;imageAspect=0;image=https://gitlab.com/uploads/-/system/project/avatar/996160/runner_logo.png;" vertex="1" parent="1">
          <mxGeometry x="358" y="630" width="110" height="110" as="geometry" />
        </mxCell>
        <mxCell id="pCYmd_2DrCdRAfmsSHer-15" style="edgeStyle=orthogonalEdgeStyle;rounded=0;orthogonalLoop=1;jettySize=auto;html=1;entryX=0.5;entryY=1;entryDx=0;entryDy=0;" edge="1" parent="1" source="pCYmd_2DrCdRAfmsSHer-9" target="pCYmd_2DrCdRAfmsSHer-6">
          <mxGeometry relative="1" as="geometry" />
        </mxCell>
        <mxCell id="pCYmd_2DrCdRAfmsSHer-9" value="&lt;code&gt;docker:dind&lt;/code&gt;" style="shape=process;whiteSpace=wrap;html=1;backgroundOutline=1;fillColor=#FFFFFF;strokeWidth=2;" vertex="1" parent="1">
          <mxGeometry x="174" y="710" width="120" height="60" as="geometry" />
        </mxCell>
        <mxCell id="pCYmd_2DrCdRAfmsSHer-11" value="CD" style="rounded=0;whiteSpace=wrap;html=1;strokeColor=#000000;strokeWidth=2;fillColor=#FFFFFF;opacity=0;" vertex="1" parent="1">
          <mxGeometry x="534" y="520" width="120" height="60" as="geometry" />
        </mxCell>
        <mxCell id="pCYmd_2DrCdRAfmsSHer-12" value="openssh:3.6" style="shape=process;whiteSpace=wrap;html=1;backgroundOutline=1;strokeColor=#000000;fillColor=#FFFFFF;strokeWidth=2;" vertex="1" parent="1">
          <mxGeometry x="534" y="610" width="120" height="60" as="geometry" />
        </mxCell>
        <mxCell id="pCYmd_2DrCdRAfmsSHer-13" value="ansible" style="shape=process;whiteSpace=wrap;html=1;backgroundOutline=1;strokeColor=#000000;fillColor=#FFFFFF;strokeWidth=2;" vertex="1" parent="1">
          <mxGeometry x="534" y="710" width="120" height="60" as="geometry" />
        </mxCell>
        <mxCell id="pCYmd_2DrCdRAfmsSHer-17" value="" style="endArrow=none;html=1;strokeWidth=2;" edge="1" parent="1">
          <mxGeometry width="50" height="50" relative="1" as="geometry">
            <mxPoint x="334" y="745" as="sourcePoint" />
            <mxPoint x="334" y="625" as="targetPoint" />
          </mxGeometry>
        </mxCell>
        <mxCell id="pCYmd_2DrCdRAfmsSHer-18" value="" style="endArrow=none;html=1;strokeWidth=2;" edge="1" parent="1">
          <mxGeometry width="50" height="50" relative="1" as="geometry">
            <mxPoint x="488" y="745" as="sourcePoint" />
            <mxPoint x="488" y="625" as="targetPoint" />
          </mxGeometry>
        </mxCell>
        <mxCell id="pCYmd_2DrCdRAfmsSHer-23" style="edgeStyle=orthogonalEdgeStyle;rounded=0;orthogonalLoop=1;jettySize=auto;html=1;strokeWidth=2;" edge="1" parent="1" source="pCYmd_2DrCdRAfmsSHer-19">
          <mxGeometry relative="1" as="geometry">
            <mxPoint x="414" y="490" as="targetPoint" />
          </mxGeometry>
        </mxCell>
        <mxCell id="pCYmd_2DrCdRAfmsSHer-19" value="" style="rounded=0;whiteSpace=wrap;html=1;strokeColor=#000000;strokeWidth=1;gradientColor=none;fillColor=none;" vertex="1" parent="1">
          <mxGeometry x="154" y="535" width="520" height="280" as="geometry" />
        </mxCell>
        <mxCell id="pCYmd_2DrCdRAfmsSHer-20" value="CI/CD server" style="rounded=0;whiteSpace=wrap;html=1;strokeColor=#000000;strokeWidth=1;fillColor=none;gradientColor=none;opacity=0;" vertex="1" parent="1">
          <mxGeometry x="348" y="770" width="120" height="60" as="geometry" />
        </mxCell>
        <mxCell id="pCYmd_2DrCdRAfmsSHer-22" value="" style="shape=image;verticalLabelPosition=bottom;labelBackgroundColor=#ffffff;verticalAlign=top;aspect=fixed;imageAspect=0;image=data:image/png,iVBORw0KGgoAAAANSUhEUgAAAOEAAADhCAMAAAAJbSJIAAAApVBMVEX////lOjX+b0L+pibrT0L63dzjJB3ztbPjIRn+bkLkLynlNS/kKyT+oAD+pSL+ngDwmpj+qSP+akP+oxb99PP/+PD/3rzpY1/+sUv/7dn+zpn+v3LjNTTjHBPmPzr+gkL+oy/+iz/+fEP+0qL+mTj+lDv+d0T5aUXwWUL+pS7+jj7+lzr1YUP+xIP+tl7+njThAADvc2nsWEv/lw3pPCr/qVf918QYtcsxAAAJ00lEQVR4nO2abXfTOBCFcd0uBDYpSWihEFKgtLRAeWf//09bx3FsjTRvsiU56dHzvThz8uy9ntk8epTJZDKZTCaTyWQymUwmk8lkMrF48eCf/DLRc0Z78osfJ2ke5HDyI82X+Pjt8yTPcXn+9nGS57x8ViR5jkvxLImmL94WT8bR9ORJ8TaFpo//LZ6Oo+nzp8W/KTStJC3G0bR6bgpNK0mLcTStJC1SaFpJWoyjaSVpkULTWtJRNK2fG1/TWtJRNK0lTaBpLekomtaSJtC0kbRYR36Oy7pIomkj6QiaNpJG17SRdARNG0mja7qTNL2m692D42raSppc01bSyJq2kibXtJU0sqadpKk1XXcPjqmpIWliTQ1Jo2pqSJpYU0PSqJqakqbVdG0+OJ6mQNKkmgJJI2oKJE2qKZA0oqZQ0pSaruGDY2lqSZpQU0vSaJpakibU1JI0mqa2pOk0XdsPjqOpI2kyTR1JI2nqSJpMU0fSSJq6khaJDlLIc2NoikiaSFNE0iiaIpIm0hSRNIqmqKRJNEWfG15TVNIkmqKSRtAUlTSJpqikETQlJE2gKfHc0JoSkibQlJA0uKaEpAk0JSQNrikpafR3U+edNI6mpKTRNSUlDawpKWl0TUlJA2tKSxpbU1LSsJoykkbWlJE0qKaMpJE1ZSQNqiknaVxNGUlDaspKGlVTVtKAmrKSRtWUlTSgprykMTVlJQ2nqSBpRE0FSYNpKkgaUVNB0mCaSpLG01SQNJSmoqTRNBUlDaSpKGk0TUVJA2kqSxpLU1HSMJoqJI2kqULSIJoqJI2kqULSIJpqJC2iHKRUzx2uqUrSKJqqJA2gqUrSKJqqJA2gqVLSCJoqnztUU6WkETRVSjpYU6WkETRVSjpYU7WkwTVVP3eYpmpJg2uqlnSgpmpJg2uqlnSgph6SBn43VbyT7hiiqYekgTX1kHSQph6SBtbUQ9JBmv489uHXSTh+eT35Z98Bz34vjnz4808o/ng9d/H7rOeEV8vPXiN+XXmoxbH66jXg5+VVzwnvZvPLic+zgk3o89DJ5Xx212/Ai2lZljc+Ix4HmvDYZ8Cb6lNOL3pNeL+s/vadj6eBNPWSdPGu+pTL+14Tbr7Ccv7RZ0SPnmZY+wz4cb75mNM+A57XE5bz9x4j3gaZ8NZjwPf1gOX0vMeE32bldsQP+v8UP4XQdPVJ/bzJh+2A5eyb/4Bnp+WOI/2IITTVSzo5aj/jqX8lXi3bv/6u9zSEpnpJF9/bz9ijEu9m7V/Pr9UjBtBUL+niet5+Rv9KvJiWHR7FP1xTtaRV1Ruf0bsS75elOaK6+G+HfokrraSTG3NA/0o0v8KKO+2EgzVVSzq5gx/RsxLPrQn1aTNUU62kRso0E/pV4reZ9fdz7ZoxUFOtpIvPc+sT+lWiUYbtiMriH6ipUtK26g28KvFq6fy9uviHaaqT1Kj6Dq9KvLMl3aBcMwZpqpS0XihsfCrxws6ZradfdCMOmlA34BfX0dKrEu8xSTdrhsrTIXuwavedvEcH9KlE9CsstcU/YA9W7b5W1ZtfonZApwxb7iaaEQdMqBnQrnpjQm0lOmXYoSr+/ppqJHWqvkNbiUgZtqiKv7emGkndqjdQViJahu2ImjWj94TyPw0XChtlJaJl2I2oSJu+msqS0ilTo6tEvAw7FMXfU1OFpGjVG6gqkSjD7ktU3Bf7vbnJb2zN7ZBGVYnCV6i6L/Y714hvbAui6s0vUR6QLsNuRHHN6LVgiGsFtlA4E8qVyJRhh7hm9NFUkhRdKGzkSuTKsEMs/j6aSpIyVW8gViJbhi3ifbGHppKk5u2QQaxEvgy7EaXi99dUkJSv+g6pEqUy7EYUit97DxZ2X6HqDYRKlMqwQ7gvemsqSEovFDZCJb4+1VlaIRS/r6a8pIuP2o81O30taFpqv0VhzfDUlJeUXSgAy1J+b3uj6otSShtPTVlJtSlTdcUbcb5Hm7carals8ftpykmqqvoNM+2Sf/ZKmajsmuGlKSuptFDsmL7S34SVgcPeFydeEzI2ELdDGzFiIMrAYe+LPnsws/tSt0MLTcRAdIHDFb/HHszsvsqq10UMRBc43H3RY0J6QFXVqyMGogscZs3Qa0pLqloofCIGogkcpvjVmtKSaqreM2IgmsBhil89IfUPaKreP2IgmsAh00arKSVp/btDgT4RA1EEzjtqQqWmpKQTsep7RgxEDhz6vqh7c6Pe2MTb4YCIgYiBQ94Xdeca4o1NvB0OihiIGDjUfVG1YBBrhXg7HBoxEDFwiDVDoykuqbhQDI8YiBQ4RPFrNMUlFao+SMRAhMAh7osKTXFJhdthqIiB8IFDFL+sKSopX/UBIwZyMWP/3yla/OIejO6+/EKxnIWMGAgbOOh9UdQUlZRdKEJHDIQNHDRtJE0xSbmUiRAxEC5w0DVD0BSTlFso4kQMhAkcrPgFTRFJmaqPFjEQ7g0HKX5eU1dSpurDvsVw0IGD3BdZTRFJ6dth3IiBkIGD3RfZCd0Bqdth9IiBkIGD3Be5PdjZfcnbYYqIgVCB4xY/swc7uy9V9YkiBkIFjntfZCa0BySqPl3EQIjAcYqf1tSWlKj6lBEDwQPHWTNITW1J8YUiccRA8MBx1gxyQstRdKFIHzEQNHDstKE0hZKiKTNKxEDQwLGKn9DUkhSr+rEiBoIEjn1fxN/c4BsbdjscL2IgSOBY90X8XAPe2JDb4agRA0ECB64Z6IIB1gpkoRg7YiBI4IA1A9PUlNRdKPYgYiBu4IDixzQ1JXWqfj8iBmIHDih+RFNTUqfq9yViIHbggOJ3NTUktat+jyIGYgeOWfzOHmzsvnbV71fEQKzAMe6LjqaGpHCh2LuIgViBY6SNrWknKUyZfYwYCAgc475oadpJCm+H+xkxEBA4XfFbmraSgqrf24iBwMBpix9qupMUVP0+RwzEDJx2zQALRrtWGAvFnkcMxAic9r4Ifqu4+y2icTvc/4iBdIHT3hfNPbjZfY3b4SFEDKQLnF3xG5o2knZVfyARA+kCZ3dfNCbcDthW/eFEDKQNnKb4jy1Jd1V/UBED2QVOU/ytpltJd1V/aBEDaQKnWTNWpqS7heLwIgayC5w6bY4NSZvfHR5kxECawKmLv3lzq9/YtlV/qBEDqQNne19svsOj5nZ4wBEDqQOnvi9uzzW3ze3wsCMGsgmczZpRa1pJWi8Uhx4xkDpwqkViXa8Vm4XiAUQMZBM4VfHf1pJWVf8wIgby+nR+vag0XX1aXM8fSsRALmbLy0rT9dFlzJ/ejcub6c3t6vZm+qAiBnJ+ulgtTh9YxEDO/j79+/AiBvLf2B8gk8lkMplMJpPJZDKZTCaTyWRw/gesYgvkE4y6yAAAAABJRU5ErkJggg==;" vertex="1" parent="1">
          <mxGeometry x="371.5" y="400" width="85" height="85" as="geometry" />
        </mxCell>
        <mxCell id="pCYmd_2DrCdRAfmsSHer-24" value="API" style="rounded=0;whiteSpace=wrap;html=1;strokeColor=#000000;strokeWidth=1;fillColor=none;gradientColor=none;opacity=0;" vertex="1" parent="1">
          <mxGeometry x="371.5" y="485" width="120" height="60" as="geometry" />
        </mxCell>
        <mxCell id="pCYmd_2DrCdRAfmsSHer-25" value="" style="shape=image;verticalLabelPosition=bottom;labelBackgroundColor=#ffffff;verticalAlign=top;aspect=fixed;imageAspect=0;image=data:image/png,iVBORw0KGgoAAAANSUhEUgAAANQAAAB4CAIAAAAFYkvaAAAYjUlEQVR4Ae2d518TWdvH7z/lfu4IpFFEmkjoRboUkY6ggAiEEuoKUhMIJWBf13V1d13Fsgq6iIptXUFddJUFV8CAlIUASUiZJPDy+SQhySSkhxTw8JkXITkzc53f+Z7rnDMz11z/8RT95eOPmnHLy885ejQ7K/tQdEyEl7eHr58n2PRQwMcX5+3jgfN0t3fAWln/F4lCWPj2H7PDJyQvN/tITmbGoTRfPy8fX5weuoNdxOR5ee/xwLlZ2/zPBvk/CycPiUJYBnwit7c/LtrLew/ASD8FxPB5erk7OtlZWW0Bt2cR8OXmHTmSk3n4cHpgkK+3D3B7ek45fHxxYreHRCGsbf7P8t2eDL4tYSswcpspsD7sbrNagepsCQUAfJa+JNwSGOlnJIAPwGc2BQB8ZpNeP2+xnfYC8AH4zKYAgE8n6a3DO4d40EtSoJVGD+SQQPlrcYF6KweH1ukUGgvrYINGI1UUEJ2C9+5EpLWKAhqN1KqAqeCzdwpOyqoikykNyd4YrSwzoNr2RX1L9O5MBxQC6YJ/wJr8Od1G4Wi7K/u4a+yFq8lY9fegsMGdfzM5g9V+6wDp0PCuhB7mKgcaJocZWF8DbFCotdb/bhv4sDuDkrOryOQOSh2x2STw2e77dpw+1OyDRiGw8Weo7P4qnCLujsU9nDXW9OU49fDZJp6j8miPylwkzaYDfEi0w97E+EicIveSQymapOp7g2xQ37VU/rpt4MM4xZcdK8+K9HNBh+Q3mcLz7Sl5yp6+dgiJRCE8qh+xqWfibRVb2i7vJmuVNXF+n1r4bDOvT/EWuo46S3cXw/cHMWCHKlY2+3uz2LBt4JN1L2R4oXHhQ2GsMFhr+4Pfz3Ce1vnaYLCY9F8mWY8Kd9tao+UnXrZZV5ZXV0ZPhWBk5kkJk3zYnddLX/nyY4K9rIwYvmfE+OTWnsEvdAbEnhkf+KkxyRktKYOJPTnO466trW/cZ6Xukp9EXAqPAM1eTPdPIt948s/cAgdaoo0/vVoT4SxXzCAbkCj7iALSL48GJ+YXOBCTtfjpbd8pQqSdXMfY6Z9/+uarsSkGl8ldmZn5+Lzn/NHg9V4qruaf7bEB+G/vfpiZ50CL/47e/54QuFOpkfp+aao5n9A+dGRxsxE9n23SL/NsaasrfFCYe2HTf/hXwPyrLUAKjVzDCK3d4X28n8X7cCYGPm6KWoX/ZXr237G+ztrSvNL6kw8nlgTst+eSbNePYO8SHBuTevgQvvz0AIOjFD4en0ql/vPsDD41Zm/EgYym3k+QYKa32HXTbEA5Fd7955+nl083V5YV531DvvBihilY6CnxlDps24yrE3ze5OAv5LpjhGO1dR3fdz25VugFn9ryRl4OfJp5eaGpIo9wnNI7trTKp97KcdxgpKSf6I6gKeHDRBKMCR/KzicyLDommvSExnrWkBATHp3aMsiZu18bFR0THhXqCnNgCGziuSk+8zXRC6VKMox/yzsm9LYhSG65IIJvjU3rK/CUuFK0f+VzJpv98piv5Jv15hF1BuXwrbFmutJ2SU/thu9b4bAe4BWdn+E2SE5hF39mnMf4vdpt3TZs6KmPK9CfdYFytZNiJK4mZ2WwLtRu/UtMCPEtxFn57ajMbMnB9cZxO8EnkgkbfGJk+W2Ln3C1kXBukv20xkva3aXiIjCxJ8Z4zBc1bqrgw8ae+MRbela9W76AqFUE09ezMDDFHUv7l1dZdwkusuMLf1UDn2DuZjZadgTb6O8+s6A3dQHy+G6CDVI+nPL7OCsjJ4Il04ydubenBdyR7tpYTwleMntQomqu0nqLHWRf2sZd+sKCXtf4yxspKyA9l9YfthF8aCs01hrrUfKYNXklHYPB2gQQX7A/n413sMZgrOQZQmAiW/7mMR5X7FKhHSbt5wne8q8FbvI8iVsFet0aCr/OZ5P4wzgfetUSDP9SLXy896ejYZfQhMtzFjRUL++HDLFhh2tM4dnupyNTM0w2k8dj8fmsVeEcN1QCHwLpHFrVNbgAcbhzg3dOFsZ7Ctdnkk0EH2/4bKxGI6W76PNh28CHzLwxtyqZ5itM+NYUGhuFQO9tfAvR7xdLJmoy3UUiOmfdoa3MdaVtmF+LWgV60y4PX9KlcT40SNYBPvnrt0rhM8AGhwOUDywWbegyqTglPiY4LCwwNLbuOVcePlGVHfwTqi7c/bjMWmV/ekiMlAypYvi0MFJBNx3/3TbwIZx8g6NiIvJ//MD9fLlof3j0/oLrU4zRS5mxMeHR0QGeO+W75q7ArPLCFF95XyXRzqOil8kbvRAPdwbi3UWtIpi5ITfs7ioTDrs9xbIrMqLCaoZdhZsHyuAzwAabg7984dN7infDquxR+kwZfGJXh3IJb34+K4BetYSIBQHwSVCQjAUwKVX+hMm5Pc+8d8QRhUC6FT5iTXcdRinf3T2ypPGbnFCskl/RXo2vGQqrY0kxUaussRd68zwkUx+0f+XvTDbr90pvyTfrhQ2BzyAbUEfvLApoVzJl/Q0b1THAkht2rTFySw3r8M63PP7o+Tjx0n4bwYdxdNzj4bLHA5dU0UwhZkZ6uuzxcHF3QSnMwyQNrA1kKspg9nYML79r9ReuNpK/m2Y/Pi67uADfxTry5F+8NQ7nCWH3Bo4xka0jEH2gAafMPGGrQNyx8am5f/pO1JfjyxtOPZpYFrCGzsavc4x19QiNjk7OyMgvOzXA4PA+XqkpOJSREr0v1H2XsL21alfDbNjhWd67LKB/7j9ZV5ZfWt148cH7meE34xBs2HUt/I062PtjK7G6uKSUUHey6wOdDY2fS1rnVSsjDW8vEwy7OzxSKyknWjvlt7aiYLsNDW9ofZxye1emuw4jkagdfo0v2BOn4zbc2xCfYnfOjxOM2bedURtsQCVe/MRj/Fa2Bw6r9LOwVbiT55J9E8m3/6AuLUPs2fGBnxoSnSSkippN6dST21/lqSV8BtqAQKKdEklXX1HnOBCDMTvUf7Eo0j3mApUhW3DYBRJ+6H79cWyeTufx6PTZ9y9ukA75Sq9obh/4pC0HPgAF5BQwgeeTO5+hvm3TnSU4oPkUAPCBvmE2BQB8ZpMeDAIAPgCf2RQA8JlNeuD5AHwAPrMpAOAzm/TA8wH4AHxmUwDAZzbpgecD8AH4zKYAgM9s0gPPZwr47D2Cko8WHCc2tlKaW0iVhOxIb0clj7ZbUGNgcJmkpooDsIfIzXcPyoJk2WwRjA6fXVB6PaWlvakUnxmfkBCblltCorS0HU/0VvG8iUVo7Zz/gM18Q1IdXrTZzWARtTZ5pYwOHxLjGBzj7yZDzWp3Ykl7Z2NeyMbnhC1lBMTuaxvhAfiM3hzGh29Df0L7pjZ0NJcbaVBTFwstUtPWLan+4tO/qXQuk0Of+ND/bUW0ZHi1jaK8HJ5aoEECjnwUCL1PVbTHhtpp5cPU2ICySft5UrD+8J+k+e3Sb9E5nIcFothKx0NXRiFo9OeMndJzof1L+mks5uvGCHvJLmLDdsae+TBHH7uYqRgJJV9Mv1oYvJcZ4LMLz2ntJBVEqHjA3aAqqY+FRiAxOMK9CYg3/fZmy/GSXEJNW8/IgoA5SIkVhUKi3eILC8vKCivOPKQJVia668vLhP+WleFT/KUPWhrcbOpt0AwfAukYfXaYzp/pyvMQTZ1tAxpfzvNpvd8EwILNxDLiSp9xOGuy4AyDjTeodRTPbnL40I77y0kdLXmRuxRNkfZj/T9oiIVG7C66vcinDTQFyh5gdj/S/S+L+ZiAg8mKTfp2im+sYVeTDRo9n1A324iGV0zWwoNCHwx6X8cgizfxa76r5GlquLDYkJzK2oIQxXB0WGX1V9vgg5gYPhuPJEJLJ6kyyUX1eyrg2un6WX0s9E5C36Jg+VeCl72zs3RzK+mlCehdR2XhNghD4bNz9A7wDgiUbl44J2mYnEYbtIIPibIOqLpP488P3rg5ymF+upRomXipJ9uU8Fm5RuU0dpCJhSEuCoFeBvchWSXVxEJjQ06OrshP5iRv9OE+PAYL2jAQPoV3Ba2tMZ5XSV6yptkGLeFDINFuBXep/DUO+31bDKznyKTYRFWNcyiTwWezOyangUImEiL3yFa+ujo2bcsrj4UWDcr8yV8q0+KSk+W3pGAczCoD4UO6BKXnZuflS7fDCX6SCa5mG5TBZ5/ZzZIuOCQiOIS1v11aXePyZ27glQfpSUoaBx3DKTcNfEhcPJ7U0VyPD3XDmk6RDbHQu8r6lwT0X/EK0d0b2kb8GqE/m4SvlzRcYvkjaLTBJuVHqgB6Wustuw6PCqx7A3Elq12xSfYpF99zodFrNQ39NNbi04pAEworXyP9JTIBfGiflOLmzqaanABnuUBl/Y1WXXn1sdCIPSU9y4KloRMRwqhy2GZrL7eYFYbN8thz11KFL9bd7E2TDVZhHUOQYOp6lvRVHjbh7YPcVTn43HOuTPHof38b44jagSu8Nctf/LMtBP4ark032xgHNDZ8Vrik0pbOFkpTYWbqgeQU2JYc7uu42U2rIRYagcR6Ero/cQWLE88unySWlVdWEDtO3/x9ZPpmhi0cMtuIkyP0VWjs6YXj5YSCyjpiR/Fe2St24CX1+KzJBkxk83sOB5rp/4FUTCgtI//4ZOrLu9EFttTzoX2LHiywVt6QItev6jlldY3xuO8vJNsrIIIOqh+CuKv06/DllEIZM/5rbPhswgqbFMLF1//tqEgWX6bSo/1U7aIhFlrEOnpXTNmJnsEPc8J4aQZjbniw50x9qsKr0BBY3zRK94vxhUUIYjAWPr7qjFb7Al0de5EGG2z8cih9Hz7TuUwu4/Pwo9OFoR4Vjxnr8NkFEgfm+UsPa4JgV/Wc43/4xORNXcmBLZuQKIRDzrXlVQ6jD++mSjGzfm9s+HRsFbNqYUYfYJxTi94KIpjrwUtu4ViYvAC+bdw9XI89o/O/fJ9qqRdiAHzbFz77pEvjU6/apG8jtbiaAvgsrkmMMwRbYjUBfJbYKl8JfwA+AJ/ZFADwmU36r8S9qakmgA/AZzYFAHxmk16NS/hKfgLwAfjMpgCAz2zSfyXuTU01v3r4bNO6FmX37NUoBX7adAVMAJ+Na1DU4cKS2iZiG6W5tbmqsiAxzF3uEaZNr5UOBzQQPsU04MCP6qCA0eGzCzhYT2msLcs6lBp7ID4mJRtf39bS0XQkzBgBRHrcODcMvg1pwHWQXoceoke9tsIuRocPibK23ynn55zjito7Sfhwywgat001YNjdmAYcwKeDAiaAT9Ea57ji9s66rABpQJdiAcNcgrVHUsWFey/G5ubZEHNl4ePQg3NFITL6HUKOnLk3QKUtQRBt5t2NprTcK3P6zvmUpCJHaMryLcyvAtF+Ohqaefbh21kmU5Sr/EpjsjRXucYCmyuXOY9mIviwjg4uro67cbjQhMyqlqb6/GDjBLDt8Cq6MQVxoLmBOxfIpIbjLWcuP/lwr9Z/PR4C5Vv0cIG9yvr7/tljJcUFdd89mFykzjL0g09pKnIEUkOWb1FyH8Hs/MzwPXJmfOTeqJS8U8+oPPa780niNPQaC5gTF8P8gqLlpoHPKjif1CFMf9XS0XqsKMVrl5FCJx1Tr82y+dNd+Z5K3Soq6dIYX/DlXpE0vhoZ2fkGkg+P0FZf5WnAFfVFohDyWb5FbK2tfDq/Txa47nzw+ixLkqtcYwElp9DWZgubCJoGPoSjl19waGDYvsjkLHxdG7mpIt7HYfNFxKZemBGsjJ4KUR5vIVyZrgjmLh2EvdAEHVj3p2JgmFaGqUgDrmxfuSzfIrb4E5eSZTMBJAqT10OT5CrXWEDZKSyMKi07g4ngg1tjF3CwroNck6YyxTy8sE6fXcp6uavLvxXAc9DDmso2+eoCG3pd4wf3u3aH76xsCInV3Jaq0oAjkCj1Wb5FbEFDlHC4b7ZJuDgmzFUuTHersQCsRprttOjCZoAPifHMJLW0l0nzWm+aQGL47uHRypEVJcCFBqt95OA7eHNZd/hUpgFHaMryLWKL9/5UFCz8B2WTfHlCkqtcY4FNk0u5SiYE2hzw2fodJbe0l4YrBM8argU2/fK8gPmhPUB5sDcmsP0Dkz91LgH2cgIkrvx3rlxIrDZmqE4DrjHLt4it1fnuPHieaafyx3RJrnKNBQB8WvcPBxcHuZBYlJXrfjy5s7k6xUXZW5UMU9Ylu5vG5n++dAie4V1mqk38hY98/tjVTGk0l00Q8TlL1wWHujTgGrN8i9haY9N+y3WXGLaeq/yFOFe5xgKGSSQ5qTZ9zNhljO35rAJz6luIpUV56emp++OTEjOLKps7WlprUv2NsOBAomyCax/SBBzO9PNb50mNjXWUs9/devriYub6BW2UV969WZaAPnT7ZGVpCYF48eHk7Mg4LB5bG7nVpgHXmOVbxBZ/ijo5OdzdVluGL2883f9ZlKs8QewLNRYA8GndgRz9og4XFh8nNrR2tFAoRGJtcV7a3j2w9aY27a1LGZR/JrHr+bsZOh2ClpZmR949+aFEOJFfbzO7oMOnfnv1hc7gcecnX10+Fu1T9UwSjy0pIy2s7IP6NOAas3yL2IIGWxP2N9z8Y5LOhNizE4OKF5l56goA+LRqp+0jkzIK9audGL4/28Nk/UH+4BoL6HdeS9zL2MOuJdZZvrFNbKFGtjQWMLHBRjwdgM+I4iqjXCNbGguY2GAjng7AZ0RxTQ/f3Bx1bo6q7LwmrqZWpwPwaSXTVmnOLQmfJ85xy21bBQhT2gngMxHHpmzUrXIuAB+Az2xDOYAPwAfg00qB9QXHlpvweeIct8pQaEo7gecDnk+rfm8MKAF8WwA+hwTKX4sL1Fs5OPizfZZxz3B3ZR93TZIaaY0LDZPD5FNIqCkA4FMNn3fg0QZyR2dTSbyT4QO9IZ7DldDDXOVsbNf1Y5o10zjWY2+iOEFSWsnNSdZGI9UUAPCpgs8pPKuyndLUbgHwIdEOexPjI3HwQArYWGkhmcaxwSdHVzbCJ+t1GwoA+JTD5xWcUNVGrCzIbewwv+eTtZ+yodZSMo1vYEvR7A0FAHxK4fNIrWhsr02NjDlMMqbnEyZv6RmYXF7msmYmBn+qPeBXKU2fgkIo5IPkPiuVPk4sbNdNyDQufCxAbUy4srx+conEYQ54A1sAPqVsafgyICGvuaM6N8rFOya72XjwuadfozIF9KE7JyoJxYX15++OzX+eocNiwu1dgmNjUg8fwpefHmBwFOHbhEzjomdS1MWEA/hkvcsk1/l8QwtIZFJhmB/O0Sv2CNlY8FnvO/2ex6fezJFeAtyBK769IFAWHySKZFOETzIEG5DyVASfuphwAJ9J4XOOyq1uJ+cnBgi9oxHhE71CgD9zIQUenOaQdp0G83wSvJBGhU9dTDiAz4TweYen1lKIlWk48bUVI8InDst9Ve0Lv3QnCpeU5muUzZmMCp+6mHAAn8ng8/TKqCa11x+KDdoTFCjc9ibltXQ2l6d6BgW4+3lpmCmqvxYoI0nsz8QvJFCEz4/8lmlq+NTFhCuDT2kicRQCCRYc6gnQ8Kt/bCWlVXnK0876ghiDLjUrwocJbB9mCma+T7GT9S2kbdylLyyd4Us8N8Vn6pVpXDTnUxcTrmUicVEVAHwa8FL/FKqnR+T+sLg42XYgq7i1s7kqJyJuf3CY36Z6PpTN/vMjPAH1dp6TlEvnjEuTfJ0XHAZkGhcvONTEhGuVSHzdfgCfQfBtQNOIcz4UAoU7cnt6RcB833uuupxQWHvqxvDC3BJTtuDAunqERkcnZ2Tkl50aYHB4H6/UFBzKSIneF+q+C37/VP9M4yL41MWEIzQmEsc6uwdFRMSnph4pJPXNsPhf7jTj0w8mRUTsdXMUTWfVFPh3K8ZwbC5hao5mVPiQKIStf8aJu4OTy3SIS5v9+97Z/OxvP65wHuKdhfNCsVuS3bNfk96/5/ZXecIGa5TemcZFp9AQ8q02kbhmI9XVgj6/BQOI1OBisT9Jx1Z1H2zjLk2zVrozZW9ilF5tMcoHMXxqYsLlEFdnuV7mgdtrBs3ktGddm5bbmXRunMd80+Sj/L1VejWw2vMC+HToXSa5w7Fh5qc9YWpKboBgh3/9vfePfzpHriwtzM7FF9SevPqOxuJN/ZztroMiGw6r074APh3k2k7wIXZG5J26cX9ofIrBZfGhpaUvQ0+v1h30VvHc1Oa7Pcm0EgLDrlYIbiv4DHNaWull4afYknM+C9cUmKelAgC+7eBCtGxsSysG4APwAQW0UmB9zmdpPRjY8zUoAODTqo9+DSiYvo4APgCf2RQA8JlNetN7Gks7I4APwGc2BQB8ZpPe0vyQ6e0B8AH4zKYAgM9s0pve01jaGQF8AD6zKQDgM5v0luaHTG8PgA/AZzYFAHxmk970nsbSzgjgA/CZTYH/B3pFCZhw0FwuAAAAAElFTkSuQmCC;" vertex="1" parent="1">
          <mxGeometry x="700" y="560" width="212" height="120" as="geometry" />
        </mxCell>
      </root>
    </mxGraphModel>
  </diagram>
</mxfile>
